<svg xmlns="http://www.w3.org/2000/svg" width="48" height="48" viewBox="0 0 48 48">
  <circle cx="24" cy="24" r="23" fill="#14100b"/>
  <circle cx="24" cy="24" r="22" fill="none" stroke="#d4a017" stroke-width="2"/>
  <circle cx="24" cy="24" r="18.5" fill="none" stroke="#d4a017" stroke-opacity="0.35" stroke-width="1"/>
  <path d="M24 6c2.6 3.2 4.2 5.6 4.2 8.2a4.2 4.2 0 1 1-8.4 0C19.8 11.6 21.4 9.2 24 6Z" fill="#e25822"/>
  <path d="M24 9.5c1.5 1.9 2.4 3.3 2.4 4.8a2.4 2.4 0 1 1-4.8 0c0-1.5.9-2.9 2.4-4.8Z" fill="#f5d78e"/>
  <rect x="13" y="19" width="22" height="5" rx="1" fill="#e8c15a"/>
  <path d="M15 24h18l-3.2 10h-11.6Z" fill="#b8860b"/>
  <path d="M17.5 24h13l-2.2 7h-8.6Z" fill="#d4a017"/>
</svg>